<mxfile host="app.diagrams.net" modified="2025-07-16" agent="APILinker Assistant" version="22.0.8">
  <diagram id="map-02" name="Mapping Workflow">
    <mxGraphModel dx="1200" dy="800" grid="1" gridSize="10" guides="1" tooltips="1" connect="1" arrows="1" page="1" pageScale="1" pageWidth="1600" pageHeight="1000">
      <root>
        <mxCell id="0"/>
        <mxCell id="1" parent="0"/>
        
        <mxCell id="src" value="GitHub Issue (source)\n{ id, title, body, labels[], created_at }" style="rounded=1;whiteSpace=wrap;html=1;fillColor=#dae8fc;strokeColor=#6c8ebf" vertex="1" parent="1">
          <mxGeometry x="60" y="160" width="260" height="120" as="geometry"/>
        </mxCell>
        
        <mxCell id="rules" value="Mapping Rules\n- title → title\n- body → description\n- labels[].name → labels (transform: to_lowercase)\n- created_at → created_at (transform: iso_to_timestamp)\n- state (if exists) → state" style="rounded=1;whiteSpace=wrap;html=1;fillColor=#fff2cc;strokeColor=#d6b656" vertex="1" parent="1">
          <mxGeometry x="380" y="140" width="360" height="160" as="geometry"/>
        </mxCell>
        
        <mxCell id="tgt" value="GitLab Issue (target)\n{ title, description, labels[], created_at, state }" style="rounded=1;whiteSpace=wrap;html=1;fillColor=#d5e8d4;strokeColor=#82b366" vertex="1" parent="1">
          <mxGeometry x="800" y="160" width="260" height="120" as="geometry"/>
        </mxCell>
        
        <mxCell id="e1" source="src" target="rules" style="edgeStyle=orthogonalEdgeStyle;endArrow=block;endFill=1;strokeColor=#6c8ebf" edge="1" parent="1">
          <mxGeometry relative="1" as="geometry"/>
        </mxCell>
        <mxCell id="e2" source="rules" target="tgt" style="edgeStyle=orthogonalEdgeStyle;endArrow=block;endFill=1;strokeColor=#d6b656" edge="1" parent="1">
          <mxGeometry relative="1" as="geometry"/>
        </mxCell>
        
        <mxCell id="note" value="Conditional mapping: include state only if present; labels transformed via custom transformer." style="whiteSpace=wrap;html=1;fillColor=#f8cecc;strokeColor=#b85450" vertex="1" parent="1">
          <mxGeometry x="380" y="320" width="360" height="80" as="geometry"/>
        </mxCell>
      </root>
    </mxGraphModel>
  </diagram>
</mxfile>


